<?xml version="1.0" encoding="utf-8"?>
<!-- Generator: Adobe Illustrator 25.4.1, SVG Export Plug-In . SVG Version: 6.00 Build 0)  -->
<svg version="1.1" id="Layer_1" xmlns="http://www.w3.org/2000/svg" xmlns:xlink="http://www.w3.org/1999/xlink" x="0px" y="0px"
	 viewBox="0 0 250 250" style="enable-background:new 0 0 250 250;" xml:space="preserve">
<style type="text/css">
	.st0{fill-rule:evenodd;clip-rule:evenodd;fill:#FFFFFF;}
</style>
<g>
	<path class="st0" d="M134.06,138.87c0.37,9.07,0.21,18.97,0.39,28.87c0.02,1.34,0.22,2.6,1.03,3.7c0.78,1.06,1.48,1.17,2.52,0.39
		c0.37-0.27,0.69-0.61,1.04-0.9c0.42-0.35,0.9-0.59,1.44-0.69c1.16-0.21,2.17,0.52,2.29,1.67c0.06,0.53,0.03,1.07,0.12,1.6
		c0.08,0.5,0.65,0.76,1.06,0.5c0.39-0.24,0.74-0.54,1.11-0.81c3.36-2.54,8.24-1.94,10.91,1.34c0.19,0.24,0.36,0.5,0.56,0.73
		c0.83,0.96,1.81,1.39,3.06,0.86c0.57-0.24,1.17-0.4,1.71-0.67c1.99-0.99,3.97-2.02,5.95-3.02c1.77-0.89,2.95-2.43,4.23-3.85
		c0.59-0.66,0.45-1.37-0.2-2.05c-0.54-0.56-1.17-1.02-1.88-1.3c-2.96-1.16-4.87-3.39-6.31-6.1c-0.58-1.08-1.15-2.17-1.61-3.31
		c-0.84-2.05-0.1-3.65,1.32-4.97c0.84-0.78,1.84-1.01,2.99-0.64c1.05,0.34,1.95,0.88,2.77,1.6c0.58,0.51,1.14,1.05,1.79,1.44
		c1.28,0.78,2.33,0.52,3.17-0.69c1.62-2.32,1.27-4.56-1.02-6.2c-1.57-1.12-3.35-1.88-5.16-2.5c-3.7-1.27-7.4-2.54-11.14-3.68
		c-3.3-1-6.65-1.84-9.98-2.73c-1.27-0.34-2.49-0.76-3.65-1.37c-0.83-0.44-1.54-1.01-2.1-1.76c-0.71-0.95-0.62-1.83,0.28-2.64
		c1.32-1.17,2.87-1.38,4.53-1.01c1.28,0.29,2.46,0.85,3.61,1.49c1.55,0.86,3.2,1.48,4.95,1.83c0.91,0.18,1.83,0.22,2.75,0.1
		c0.57-0.08,0.99-0.41,1.17-0.98c0.15-0.49-0.08-0.9-0.38-1.26c-0.45-0.55-1.07-0.89-1.7-1.16c-1.69-0.72-3.39-1.42-5.11-2.09
		c-2.43-0.95-4.88-1.85-7.31-2.79c-0.71-0.28-1.41-0.61-1.98-1.15c-1.39-1.34-1.06-3.12,0.71-3.89c0.88-0.38,1.76-0.48,2.68-0.13
		c1.22,0.46,2.46,0.86,3.68,1.33c3.23,1.25,6.5,2.3,9.95,2.75c2.83,0.36,5.66,0.4,8.49,0c1.6-0.23,3.21-0.28,4.82-0.24
		c1.66,0.04,3.16,0.55,4.55,1.43c2.08,1.32,4.02,2.83,5.81,4.51c1.95,1.84,3.86,3.73,5.76,5.64c2,2.01,3.98,4.05,6.15,5.9
		c0.7,0.6,1.39,1.23,1.95,1.95c0.62,0.81,1.4,1.16,2.35,1.23c0.69,0.06,1.38,0.03,2.07,0.09c2.21,0.21,4.16,1.03,5.74,2.62
		c1.03,1.04,1.03,1.89,0.06,3.02c-0.66,0.76-1.44,1.38-2.31,1.88c-0.6,0.34-1.2,0.69-1.73,1.12c-0.82,0.66-1.28,1.52-1.22,2.61
		c0.05,0.92,0.05,1.84,0.15,2.76c0.44,4.22,0.37,8.42-0.13,12.63c-0.25,2.09-1,4.01-1.95,5.86c-3.74,7.33-9.44,12.57-16.9,15.97
		c-2.66,1.21-5.37,2.27-8.14,3.16c-2.26,0.73-4.52,1.47-6.75,2.29c-1.36,0.5-2.71,1.08-3.99,1.76c-2.45,1.31-2.86,2.61-1.75,5.09
		c0.25,0.56,0.58,1.09,0.82,1.65c0.87,2.02,0.24,3.44-1.83,4.14c-1.12,0.38-2.28,0.34-3.41,0.09c-2.59-0.57-4.83-1.94-7.05-3.31
		c-0.71-0.44-0.95-1.17-0.98-1.98c-0.05-1.69-0.11-3.38-0.14-5.06c-0.01-0.61-0.21-1.05-0.81-1.23c-3.3-1-6.58-2.1-10.09-2.15
		c-0.96-0.01-1.08,0.1-1.16,1c-0.09,1.07-0.15,2.14-0.27,3.21c-0.1,0.91-0.2,1-1.18,1c-2.07,0.01-4.15-0.05-6.22-0.04
		c-0.99,0-1.98-0.01-2.98,0.13c-0.88,0.13-1.81-0.14-2.72-0.15c-2.3-0.04-4.61-0.04-6.91-0.06c-2.95-0.02-2.7,0.17-2.48-2.85
		c0.16-2.15,0.25-4.29,0.24-6.44c-0.01-1.86-0.03-1.88-1.78-2.38c-4.2-1.2-8.41-2.38-12.62-3.56c-2.29-0.64-4.57-1.31-6.87-1.91
		c-5.03-1.31-10.12-1.49-15.29-0.97c-4.98,0.5-9.82,1.67-14.7,2.67c-3.51,0.72-6.6,2.43-9.27,4.87c-1.07,0.98-2.24,1.87-3.4,2.74
		c-0.48,0.36-1.07,0.59-1.63,0.82c-0.35,0.15-0.78-0.2-0.82-0.57c-0.09-0.9,0.34-1.64,0.77-2.36c1.16-1.92,2.63-3.59,4.25-5.13
		c0.95-0.9,1.94-1.75,2.97-2.55c1.64-1.27,3.33-2.47,4.99-3.7c5.07-3.77,10.79-6.13,16.89-7.6c7.11-1.72,14.31-2.64,21.66-2.44
		c3.91,0.11,7.82,0.34,11.72,0.57c3.5,0.21,3.23,0.45,3.52-3.27c0.13-1.68,0.1-3.38,0.16-5.06c0.18-5.37,0.26-10.74,0.57-16.1
		c0.27-4.6,0.17-9.21,0.44-13.8c0.32-5.44,0.2-10.9,0.49-16.34c0.28-5.14,0.26-10.28,0.33-15.42c0.01-0.76,0.04-1.54-0.21-2.28
		c-0.27-0.81-0.81-1.14-1.59-0.85c-0.71,0.27-1.43,0.58-2.07,0.98c-3.39,2.1-6.8,4.18-10.13,6.38c-3.36,2.21-6.22,4.99-8.76,8.1
		c-1.02,1.25-1.99,2.53-3.04,3.76c-2.52,2.95-2.69,6.23-1.41,9.71c0.94,2.56,2.49,4.75,4.3,6.76c2.26,2.51,4.7,4.85,7.27,7.05
		c2.16,1.84,4.22,3.8,6.18,5.86c2.73,2.86,4.16,6.21,3.94,10.21c-0.07,1.15-0.09,2.3-0.06,3.45c0.04,1.64-1,2.35-2.18,2.48
		c-2.43,0.29-4.75,0.01-6.81-1.46c-0.5-0.36-0.98-0.74-1.48-1.1c-2.23-1.62-4.77-2.43-7.44-2.9c-0.52-0.09-1.07-0.06-1.61-0.05
		c-0.4,0-0.76,0.14-0.96,0.51c-0.22,0.4-0.02,0.73,0.22,1.04c0.19,0.24,0.41,0.46,0.61,0.69c0.44,0.52,0.56,1.11,0.22,1.7
		c-0.41,0.72-1.09,1.15-1.91,1.01c-0.67-0.11-1.32-0.41-1.93-0.71c-4.22-2.07-8.13-4.6-11.7-7.69c-3.5-3.03-6.53-6.49-9.43-10.07
		c-0.78-0.96-1.59-1.88-2.54-2.66c-1.41-1.14-2.42-1.2-3.62,0.09c-1.28,1.38-2.75,1.57-4.4,1.25c-1.28-0.25-2.53-0.62-3.73-1.16
		c-2.49-1.13-4.28-2.93-5.34-5.46c-1.16-2.78-1.71-5.73-2.24-8.67c-0.5-2.79-0.88-5.6-1.24-8.42c-0.19-1.44-0.21-2.9,0.15-4.35
		c0.48-1.92,1.06-2.37,3.08-2.3c1.73,0.07,3.29,0.67,4.77,1.54c1,0.59,1.88,1.33,2.68,2.17c1.01,1.06,2.13,2,3.32,2.85
		c1.98,1.4,2.75,1.08,3.21-1.35c0.22-1.21,0.46-2.43,0.49-3.64c0.06-2.27,0.7-4.39,1.53-6.46c1.12-2.78,2.49-5.44,4.03-8.02
		c1.43-2.4,3.37-4.37,5.43-6.22c2.11-1.9,4.19-3.83,6.32-5.71c0.75-0.66,0.95-1.28,0.46-2.2c-0.82-1.53-0.63-3.3-0.96-4.94
		c-0.21-1.05-0.35-2.12-0.49-3.18c-0.2-1.53-0.35-3.05,0.15-4.56c0.25-0.74,0.69-1.13,1.48-1.21c1.3-0.13,2.42,0.15,3.36,1.1
		c1.3,1.31,2.63,2.58,3.92,3.89c1.4,1.42,2.79,2.86,4.14,4.33c0.57,0.62,1.2,0.9,2.03,0.77c5.57-0.91,11.18-0.47,16.78-0.38
		c1.53,0.03,3.06,0.19,4.59,0.28c0.61,0.04,1.23,0.07,1.84,0.09c1.73,0.05,1.74,0.05,1.78-1.79c0.02-1.3-0.02-2.61-0.02-3.91
		c0-0.61-0.01-1.23,0.04-1.84c0.04-0.6,0.37-0.98,0.97-1.13c0.44-0.11,0.9-0.2,1.31-0.39c0.65-0.31,0.95-1,0.85-1.74
		c-0.08-0.59-0.52-1-1.29-1.11c-0.61-0.08-1.22-0.07-1.83-0.15c-0.5-0.06-0.79-0.56-0.57-1.03c1.32-2.86,2.61-5.73,4.59-8.22
		c0.95-1.2,1.95-2.37,2.97-3.52c0.61-0.69,0.89-0.69,1.48-0.01c2.33,2.68,4.28,5.61,5.65,8.9c0.32,0.78,0.65,1.56,0.91,2.36
		c0.33,1.04,0.08,1.41-0.96,1.58c-0.53,0.09-1.08,0.1-1.58,0.25c-0.53,0.17-0.92,0.56-0.99,1.16c-0.07,0.6,0.21,1.07,0.7,1.35
		c0.46,0.26,0.98,0.42,1.49,0.58c0.69,0.22,0.96,0.67,0.95,1.38c-0.04,2.61,0.11,5.22-0.24,7.82c-0.21,1.55,0.05,1.9,1.61,2.14
		c1.14,0.17,2.31,0.37,3.26-0.58c3.76-1.69,7.63-2.76,11.81-2.25c1.6,0.2,3.22,0.19,4.78,0.65c0.88,0.26,1.78,0.5,2.6,0.89
		c1.94,0.93,2.14,2.3,0.61,3.78c-0.28,0.27-0.61,0.47-0.86,0.76c-0.66,0.75-0.85,1.64-0.47,2.57c0.32,0.8,1.03,1.13,1.83,1.19
		c4.17,0.3,8.28,0.12,12.17-1.68c3.45-1.6,6.46-3.84,9.33-6.28c2.51-2.14,4.97-4.34,7.39-6.59c2.1-1.95,4.53-2.8,7.36-2.61
		c2.06,0.14,2.99,1.43,2.41,3.45c-0.19,0.66-0.47,1.3-0.75,1.93c-2.01,4.58-4.47,8.92-7.04,13.19c-1.54,2.56-3.19,5.06-4.84,7.56
		c-0.59,0.89-1.3,1.71-1.96,2.55c-1.44,1.8-3.37,2.23-5.56,2.06c-4.62-0.38-9.04-1.64-13.49-2.81c-1.71-0.45-3.42-0.88-5.13-1.3
		c-0.52-0.13-1.05-0.23-1.58-0.28c-0.84-0.08-1.18,0.26-0.99,1.06c0.27,1.13,0.33,2.27,0.42,3.42c0.11,1.48-1,3.12-2.86,3.35
		c-3.11,0.38-6.13,0.13-8.84-1.69c-2.69-1.81-5.11-3.92-7.24-6.37c-0.25-0.29-0.49-0.58-0.78-0.83c-0.21-0.19-0.52-0.04-0.56,0.15
		c-0.11,0.52-0.16,1.06-0.17,1.59c-0.15,4.75-0.34,9.51-0.31,14.27C134.09,123.61,134.06,130.83,134.06,138.87z"/>
	<path class="st0" d="M125.24,14.39c0.64-0.42,1.3-0.81,1.93-1.25c6.1-4.21,12.81-6.83,20.14-7.97c3.5-0.54,7.01-0.8,10.54-0.87
		c9.05-0.16,18.1-0.32,27.16-0.46c3.54-0.05,7.05-0.34,10.47-1.28c0.28-0.08,0.59-0.01,0.87-0.01c0.31,0.53,0.22,1.08,0.22,1.61
		c0.01,8.52,0,17.04,0,25.55c0,0.31,0.01,0.61-0.01,0.92c-0.04,0.7-0.23,0.97-0.94,1.06c-2.06,0.25-4.12,0.45-6.18,0.67
		c-6.12,0.64-12.26,0.52-18.4,0.65c-4.37,0.1-8.75,0.13-13.12,0.31c-3.91,0.16-7.81,0.61-11.61,1.56
		c-6.73,1.68-12.8,4.66-17.84,9.54c-0.83,0.8-1.65,1.61-2.47,2.41c-0.22,0.21-0.44,0.43-0.79,0.32
		C125.22,36.24,125.23,25.32,125.24,14.39z"/>
	<path class="st0" d="M125.24,14.39c-0.01,10.92-0.01,21.84-0.02,32.77c-0.61-0.06-0.88-0.58-1.23-0.96
		c-4.21-4.53-9.31-7.69-15.04-9.92c-3.61-1.41-7.37-2.09-11.18-2.53c-6.64-0.76-13.32-0.7-20-0.8c-5.37-0.08-10.74-0.02-16.1-0.56
		c-2.06-0.21-4.12-0.39-6.18-0.64c-1.38-0.16-1.44-0.28-1.5-1.77c-0.02-0.46-0.02-0.92-0.02-1.38c0-7.98,0-15.96,0-23.94
		c0-0.54,0-1.08,0.04-1.61c0.04-0.48,0.36-0.63,0.8-0.57c0.23,0.03,0.45,0.09,0.67,0.15c3.06,0.79,6.18,1.12,9.34,1.18
		c9.51,0.16,19.02,0.37,28.54,0.48c5.33,0.06,10.56,0.76,15.7,2.08c4.71,1.22,9.07,3.3,13.14,5.95
		C123.23,12.98,124.23,13.7,125.24,14.39z"/>
	<path class="st0" d="M124.32,247.51c-14.96,0-29.92,0-44.88,0c-0.08,0-0.15,0.01-0.23,0c-0.6-0.05-1.36,0.24-1.73-0.32
		c-0.49-0.73-0.32-1.63-0.1-2.45c0.12-0.47,0.53-0.78,0.99-0.88c0.67-0.14,1.36-0.22,2.04-0.27c0.38-0.03,0.76,0.08,1.14,0.1
		c1.58,0.09,2.29,0.18,2.39-1.82c0.05-1.16,0.65-1.56,1.88-1.55c1.84,0.02,3.68,0.13,5.52,0.19c0.61,0.02,1.23,0.01,1.84,0.03
		c1.12,0.04,1.61-0.1,1.74-1.53c0.12-1.28,0.33-1.42,1.55-1.47c1-0.04,2-0.04,2.99,0.01c1.58,0.08,2.84-0.49,3.84-1.69
		c1.23-1.47,2.49-2.92,3.66-4.43c1.03-1.33,2-2.72,2.93-4.13c1.97-3,3.22-6.26,3.44-9.88c0.02-0.38,0.07-0.76,0.13-1.14
		c0.07-0.44,0.35-0.65,0.78-0.68c0.15-0.01,0.31,0,0.46,0c6.83,0.02,13.66,0.03,20.48,0.05c0.31,0,0.61-0.01,0.92,0.01
		c0.7,0.05,0.97,0.26,0.94,1.01c-0.11,2.6,0.75,4.98,1.58,7.37c0.71,2.05,1.75,3.9,3.17,5.56c1.59,1.87,3.06,3.83,4.61,5.74
		c1.63,2.01,1.65,1.99,4.3,1.91c1-0.03,1.99-0.06,2.99-0.05c0.61,0.01,1.01,0.31,1.03,0.99c0.01,0.31,0.05,0.61,0.11,0.91
		c0.26,1.19,0.48,1.43,1.68,1.46c1.53,0.03,3.07-0.03,4.6-0.06c0.77-0.01,1.53-0.05,2.3-0.04c1.64,0.02,1.64,0.03,2.22,1.66
		c0.52,1.45,0.52,1.45,2.14,1.53c0.84,0.04,1.69,0.04,2.53,0.13c0.76,0.08,1.06,0.43,1.1,1.22c0.03,0.53,0,1.07-0.05,1.61
		c-0.04,0.42-0.3,0.7-0.75,0.71c-0.69,0.02-1.38,0.04-2.07,0.04c-14.73,0-29.46,0-44.19,0
		C124.32,247.42,124.32,247.47,124.32,247.51z"/>
	<path class="st0" d="M125.24,50.7c1.04-0.91,2.06-1.83,3.12-2.73c1.52-1.29,3.04-2.58,4.6-3.82c5.5-4.35,11.82-6.68,18.71-7.65
		c4.12-0.58,8.25-0.6,12.39-0.66c4.83-0.07,9.66-0.12,14.49-0.15c5.45-0.04,10.87-0.53,16.25-1.39c0.38-0.06,0.76-0.1,1.14-0.1
		c0.34,0.01,0.57,0.23,0.57,0.58c0.02,1.29,0.01,2.59,0.01,3.99c-4.14,0.65-8.13,1.36-12.21,1.41c-6.52,0.07-13.03,0.13-19.55,0.24
		c-4.21,0.07-8.44,0.04-12.62,0.7c-2.04,0.33-4.1,0.62-6.11,1.09c-3.7,0.86-7.1,2.44-10.16,4.7c-2.96,2.19-5.85,4.46-8.79,6.67
		c-0.59,0.44-1.05,1.13-1.91,1.12C125.19,53.37,125.21,52.03,125.24,50.7z"/>
	<path class="st0" d="M125.24,50.7c-0.02,1.33-0.05,2.67-0.07,4c-0.81-0.14-1.31-0.77-1.91-1.23c-2.26-1.72-4.52-3.44-6.73-5.22
		c-5.25-4.22-11.29-6.36-17.92-7.16c-5.2-0.63-10.41-0.67-15.63-0.74c-5.37-0.08-10.75-0.15-16.12-0.18
		c-4.09-0.02-8.1-0.71-12.12-1.29c-0.55-0.08-0.8-0.38-0.82-0.91c-0.01-0.31-0.02-0.61-0.01-0.92c0.08-3.31-0.62-3.11,3.06-2.57
		c3.95,0.58,7.92,1.03,11.92,1.11c5.45,0.1,10.9,0.12,16.35,0.21c3.3,0.06,6.61,0.06,9.9,0.29c6.5,0.46,12.73,1.94,18.4,5.32
		c2.78,1.66,5.3,3.67,7.73,5.78C122.6,48.35,123.92,49.53,125.24,50.7z"/>
	<path class="st0" d="M125.12,209.25c-3.36,0-6.73,0.01-10.09-0.01c-1.28-0.01-1.37-0.1-1.37-1.24c0.01-2.09-0.09-2.03,1.98-2.03
		c6.35,0.01,12.69,0,19.04,0c0.38,0,0.77-0.02,1.15,0.02c0.43,0.04,0.68,0.3,0.74,0.73c0.02,0.15,0.04,0.3,0.06,0.45
		c0.19,1.99,0.13,2.08-1.86,2.08c-3.21,0.01-6.42,0-9.63,0C125.12,209.26,125.12,209.26,125.12,209.25z"/>
	<path class="st0" d="M125.15,213.53c-3.21,0-6.43,0-9.64,0c-0.46,0-0.92,0.02-1.37-0.05c-0.18-0.03-0.46-0.24-0.48-0.39
		c-0.04-0.53-0.02-1.07,0.06-1.59c0.02-0.15,0.32-0.33,0.51-0.36c0.37-0.07,0.76-0.06,1.14-0.06c6.58-0.01,13.16-0.02,19.74-0.02
		c0.31,0,0.61,0.01,0.92,0.02c0.44,0.02,0.69,0.26,0.73,0.7c0.02,0.23,0.03,0.46,0.03,0.69c0.01,0.8-0.15,1-0.86,1.03
		c-0.53,0.03-1.07,0.02-1.61,0.02C131.27,213.53,128.21,213.53,125.15,213.53C125.15,213.53,125.15,213.53,125.15,213.53z"/>
</g>
</svg>
