<?xml version="1.0" encoding="utf-8"?>
<!-- Generator: Adobe Illustrator 25.4.1, SVG Export Plug-In . SVG Version: 6.00 Build 0)  -->
<svg version="1.1" id="Layer_1" xmlns="http://www.w3.org/2000/svg" xmlns:xlink="http://www.w3.org/1999/xlink" x="0px" y="0px"
	 viewBox="0 0 79.2 32.16" style="enable-background:new 0 0 79.2 32.16;" xml:space="preserve">
<style type="text/css">
	.st0{fill-rule:evenodd;clip-rule:evenodd;fill:#FFFFFF;}
</style>
<g>
	<path class="st0" d="M60.87,10.01c0.12-0.02,0.17-0.13,0.26-0.2c0.5-0.42,1.09-0.5,1.7-0.35c0.51,0.13,0.82,0.5,0.97,1
		c0.06,0.22,0.09,0.45,0.09,0.68c0,0.63,0,1.26,0,1.89c0,0.44-0.03,0.89,0.05,1.33c0.02,0.14-0.04,0.22-0.19,0.22
		c-0.39,0-0.77,0-1.16,0c-0.1,0-0.16-0.07-0.16-0.17c0-0.16,0.01-0.31,0.02-0.47c0.04-0.79,0.04-1.57,0.01-2.36
		c0-0.11-0.01-0.23-0.03-0.34c-0.06-0.35-0.39-0.53-0.71-0.38C61.4,11,61.2,11.26,61.13,11.6c-0.03,0.12-0.03,0.26-0.03,0.38
		c-0.01,0.74-0.03,1.49,0.04,2.23c0,0.04,0.01,0.09,0.01,0.13c0,0.16-0.04,0.22-0.19,0.22c-0.39,0.01-0.77,0-1.16,0
		c-0.11,0-0.15-0.07-0.16-0.17c0-0.03,0-0.06,0-0.09c0.08-0.94,0.02-1.89,0.04-2.83c0-0.11,0-0.23-0.04-0.34
		c-0.1-0.28-0.38-0.42-0.66-0.29c-0.41,0.19-0.62,0.53-0.66,0.98c-0.01,0.16,0,0.31,0,0.47c0.01,0.67-0.02,1.35,0.04,2.02
		c0.02,0.18-0.04,0.24-0.21,0.25c-0.36,0-0.72,0-1.07,0c-0.15,0-0.21-0.06-0.21-0.21c0-0.04,0-0.09,0-0.13
		c0.09-1.14,0.05-2.29,0.04-3.43c0-0.37,0.04-0.74-0.04-1.11c-0.02-0.09,0.05-0.18,0.14-0.18c0.39-0.01,0.77,0,1.16,0
		c0.1,0,0.15,0.07,0.16,0.16c0,0.04,0,0.09,0.01,0.13c0.02,0.07,0.08,0.08,0.13,0.05c0.1-0.06,0.18-0.14,0.28-0.2
		c0.44-0.28,0.91-0.33,1.4-0.19c0.27,0.08,0.5,0.21,0.64,0.47c0.01,0.02,0.03,0.05,0.05,0.06C60.84,10,60.85,10,60.87,10.01z"/>
	<path class="st0" d="M45.84,11.1c0-1.03,0-2.06,0-3.09c0-0.06,0-0.11,0-0.17c0-0.08,0.04-0.14,0.13-0.15c0.4-0.01,0.8-0.01,1.2,0
		c0.08,0,0.13,0.06,0.13,0.14c0,0.1,0,0.2-0.01,0.3c-0.05,0.92,0,1.83-0.02,2.75c0,0.01,0,0.03,0,0.04
		c0.01,0.04,0.02,0.08,0.05,0.11c0.04,0.04,0.08,0,0.11-0.03c0.34-0.4,0.73-0.77,1.01-1.22c0.13-0.21,0.29-0.28,0.53-0.27
		c0.41,0.02,0.83,0,1.25,0c0.06,0,0.11,0,0.17,0.01c0.05,0,0.08,0.03,0.09,0.08c0,0.02,0,0.06-0.02,0.08
		c-0.25,0.28-0.5,0.55-0.75,0.82c-0.24,0.26-0.48,0.53-0.72,0.79c-0.17,0.19-0.17,0.22-0.03,0.45c0.48,0.8,0.96,1.59,1.43,2.39
		c0.08,0.13,0.25,0.26,0.15,0.41c-0.07,0.11-0.27,0.04-0.41,0.04c-0.36,0-0.72-0.01-1.07,0c-0.18,0.01-0.3-0.06-0.36-0.24
		c-0.18-0.52-0.45-0.99-0.7-1.47c-0.03-0.06-0.06-0.13-0.1-0.19c-0.08-0.13-0.16-0.13-0.28-0.04c-0.19,0.15-0.3,0.34-0.33,0.58
		c-0.03,0.29-0.01,0.57,0.01,0.86c0.03,0.52,0.02,0.5-0.47,0.49c-0.27,0-0.54,0-0.82,0c-0.1,0-0.16-0.06-0.17-0.16
		c-0.01-0.06,0-0.11,0-0.17C45.84,13.19,45.84,12.15,45.84,11.1C45.84,11.1,45.84,11.1,45.84,11.1z"/>
	<path class="st0" d="M26.5,23.35c-0.3,0-0.6-0.02-0.89-0.11c-0.81-0.23-1.29-0.84-1.4-1.71c-0.02-0.17,0.04-0.25,0.2-0.26
		c0.33-0.03,0.65-0.07,0.98-0.09c0.09-0.01,0.16,0.03,0.2,0.13c0.03,0.09,0.06,0.19,0.11,0.28c0.26,0.49,0.87,0.63,1.33,0.31
		c0.35-0.25,0.34-0.75-0.03-0.96c-0.13-0.08-0.29-0.12-0.44-0.17c-0.33-0.09-0.67-0.16-0.99-0.26c-0.66-0.2-1.05-0.67-1.19-1.34
		c-0.2-0.93,0.22-2,1.56-2.25c0.44-0.08,0.88-0.06,1.32,0.07c0.71,0.22,1.11,0.72,1.32,1.4c0.05,0.15-0.02,0.26-0.17,0.29
		c-0.34,0.06-0.68,0.1-1.02,0.14c-0.09,0.01-0.17-0.04-0.21-0.12c-0.02-0.04-0.03-0.08-0.06-0.12c-0.23-0.4-0.64-0.53-1.06-0.34
		c-0.2,0.09-0.32,0.23-0.33,0.46c-0.01,0.22,0.12,0.41,0.36,0.48c0.26,0.08,0.52,0.14,0.79,0.2c0.26,0.07,0.52,0.14,0.77,0.25
		c0.52,0.23,0.85,0.61,0.98,1.16c0.09,0.38,0.1,0.77,0.01,1.15c-0.2,0.79-0.81,1.3-1.66,1.39C26.81,23.35,26.65,23.34,26.5,23.35z"
		/>
	<path class="st0" d="M43.34,18c0,0.24-0.01,0.43,0,0.62c0.01,0.13-0.08,0.32,0.07,0.39c0.11,0.05,0.21-0.11,0.32-0.18
		c0.69-0.42,1.99-0.37,2.54,0.74c0.1,0.21,0.18,0.42,0.22,0.65c0.12,0.71,0.09,1.4-0.22,2.06c-0.5,1.07-1.7,1.42-2.7,0.8
		c-0.04-0.02-0.07-0.05-0.11-0.07c-0.04-0.01-0.09-0.01-0.1,0.04c-0.03,0.19-0.15,0.21-0.31,0.21c-0.27-0.01-0.54,0-0.82,0
		c-0.15,0-0.2-0.06-0.19-0.22c0.07-0.64,0.03-1.29,0.03-1.93c0.01-1.02,0-2.03,0-3.05c0-0.29-0.02-0.57-0.03-0.86
		c-0.01-0.15,0.04-0.2,0.2-0.21c0.3,0,0.6-0.01,0.9,0c0.21,0,0.26,0.06,0.25,0.25C43.37,17.52,43.36,17.79,43.34,18z M45.23,20.84
		c0-0.02-0.01-0.13-0.02-0.24c-0.01-0.08-0.04-0.17-0.07-0.25c-0.13-0.35-0.41-0.53-0.79-0.54c-0.42-0.01-0.71,0.21-0.87,0.57
		c-0.23,0.51-0.16,1.01,0.18,1.45c0.4,0.51,1.11,0.43,1.41-0.15C45.19,21.45,45.24,21.2,45.23,20.84z"/>
	<path class="st0" d="M40.76,12.52c-0.46,0-0.92,0-1.37,0c-0.12,0-0.18,0.08-0.15,0.2c0.1,0.31,0.27,0.58,0.62,0.64
		c0.38,0.07,0.78,0.06,1-0.3c0.19-0.31,0.4-0.29,0.68-0.19c0.2,0.07,0.41,0.12,0.61,0.19c0.11,0.04,0.15,0.13,0.11,0.24
		c-0.09,0.26-0.25,0.48-0.43,0.68c-1.11,1.17-3.26,0.92-3.84-0.89c-0.2-0.64-0.22-1.29-0.06-1.95c0.09-0.35,0.25-0.67,0.47-0.95
		c0.44-0.58,1.03-0.84,1.75-0.81c1,0.04,1.65,0.52,2,1.47c0.17,0.46,0.21,0.95,0.24,1.43c0.01,0.18-0.04,0.24-0.22,0.24
		c-0.36,0-0.72,0-1.07,0C40.99,12.52,40.88,12.52,40.76,12.52C40.76,12.52,40.76,12.52,40.76,12.52z M40.12,11.33
		C40.12,11.34,40.12,11.34,40.12,11.33c0.16,0.01,0.31,0.01,0.47,0.01c0.07,0,0.14,0,0.21,0c0.14-0.01,0.19-0.11,0.12-0.24
		c-0.17-0.3-0.54-0.48-0.91-0.44c-0.3,0.04-0.54,0.17-0.69,0.44c-0.07,0.14-0.04,0.23,0.12,0.23
		C39.66,11.34,39.89,11.33,40.12,11.33z"/>
	<path class="st0" d="M30.27,12.25c0.01,0.44,0.02,1.21,0.03,1.98c0,0.06,0,0.11,0,0.17c0,0.1-0.05,0.17-0.16,0.17
		c-0.43,0-0.86,0-1.29,0c-0.08,0-0.12-0.07-0.14-0.14c-0.01-0.04-0.01-0.09-0.01-0.13c0.08-1.5,0.02-3.01,0.03-4.51
		c0-0.11,0-0.23-0.01-0.34c-0.01-0.14-0.07-0.21-0.21-0.23c-0.11-0.02-0.23-0.02-0.34-0.02c-0.36,0-0.72,0.01-1.07,0
		c-0.24,0-0.29-0.05-0.29-0.27c0-0.37,0-0.74,0-1.12c0-0.17,0.07-0.22,0.24-0.22c0.07,0,0.14,0.01,0.21,0.02
		c0.68,0.06,1.37,0.1,2.06,0.07c0.36-0.01,0.72,0,1.07,0c0.47,0,0.94,0.02,1.41-0.06C31.89,7.61,31.95,7.6,32,7.6
		c0.13,0,0.18,0.04,0.19,0.17c0,0.01,0,0.03,0,0.04c0,0.39,0,0.77,0,1.16c0,0.19-0.08,0.27-0.26,0.25
		c-0.43-0.06-0.86-0.02-1.29-0.03c-0.07,0-0.15-0.01-0.21,0.01c-0.07,0.01-0.14,0.06-0.14,0.14c-0.01,0.11-0.02,0.23-0.02,0.34
		C30.27,10.42,30.27,11.17,30.27,12.25z"/>
	<path class="st0" d="M36.04,12.1c0.02,0.64-0.04,1.43,0.04,2.21c0,0.03,0,0.06,0,0.09c0,0.1-0.06,0.17-0.15,0.17
		c-0.43,0-0.86,0-1.29,0c-0.1,0-0.15-0.08-0.15-0.17c0-0.04,0-0.09,0-0.13c0.06-1.56,0-3.12,0.03-4.67c0-0.06,0-0.11,0-0.17
		c-0.01-0.16-0.08-0.24-0.24-0.24c-0.33,0-0.66,0-0.99,0.01c-0.16,0-0.31,0-0.47,0c-0.16-0.01-0.22-0.06-0.22-0.2
		c0-0.41,0-0.83,0-1.24c0-0.11,0.08-0.16,0.17-0.15c0.21,0.01,0.43,0.02,0.64,0.04c0.6,0.05,1.2,0.06,1.8,0.05
		c0.47-0.01,0.94-0.01,1.41,0c0.37,0.01,0.74-0.04,1.11-0.08c0.16-0.02,0.21,0.03,0.22,0.19c0,0.4,0.01,0.8,0,1.2
		c0,0.19-0.07,0.26-0.27,0.23c-0.46-0.06-0.91-0.02-1.37-0.03c-0.22,0-0.27,0.05-0.27,0.28C36.04,10.3,36.04,11.13,36.04,12.1z"/>
	<path class="st0" d="M51.23,12.03c0-0.34,0.04-0.68,0.14-1.02c0.31-1.02,1.25-1.66,2.35-1.63c0.93,0.03,1.84,0.6,2.15,1.82
		c0.16,0.62,0.14,1.25-0.07,1.86c-0.62,1.83-2.81,2.09-3.91,0.9c-0.38-0.42-0.56-0.92-0.63-1.47
		C51.24,12.34,51.24,12.18,51.23,12.03z M52.64,11.94c0,0.39,0.04,0.7,0.2,0.98c0.17,0.29,0.43,0.46,0.77,0.45
		c0.35-0.01,0.61-0.16,0.75-0.48c0.27-0.59,0.27-1.19-0.02-1.78c-0.17-0.36-0.54-0.52-0.94-0.43c-0.4,0.08-0.59,0.38-0.69,0.74
		C52.67,11.62,52.66,11.82,52.64,11.94z"/>
	<path class="st0" d="M40.07,23.01c-0.39,0.28-0.81,0.36-1.27,0.34c-1.11-0.03-1.52-0.98-1.34-1.77c0.12-0.53,0.43-0.89,0.94-1.08
		c0.43-0.16,0.89-0.2,1.35-0.25c0.04,0,0.09,0,0.13,0c0.08,0,0.18,0.03,0.23-0.07c0.06-0.12,0.01-0.22-0.07-0.32
		c-0.05-0.07-0.13-0.11-0.22-0.13c-0.32-0.08-0.62-0.04-0.81,0.23c-0.16,0.22-0.33,0.24-0.56,0.19c-0.24-0.05-0.48-0.09-0.71-0.15
		c-0.12-0.03-0.16-0.12-0.12-0.23c0.2-0.51,0.55-0.88,1.07-1.04c0.57-0.17,1.16-0.19,1.73-0.01c0.59,0.18,0.9,0.56,0.95,1.18
		c0.02,0.28,0.03,0.57,0.03,0.86c0,0.59,0,1.17,0,1.76c0,0.17,0.02,0.34,0.03,0.51c0.01,0.15-0.05,0.22-0.2,0.22
		c-0.3,0.01-0.6,0-0.9,0.01C40.2,23.25,40.19,23.11,40.07,23.01z M39.82,21.27c-0.24,0-0.49,0.03-0.71,0.12
		c-0.13,0.05-0.26,0.12-0.33,0.26c-0.15,0.26-0.05,0.53,0.24,0.61c0.54,0.15,1.07-0.21,1.15-0.79c0.02-0.12-0.04-0.18-0.17-0.19
		C39.94,21.26,39.88,21.27,39.82,21.27z"/>
	<path class="st0" d="M59.93,21.55c0,0.49,0,0.97,0,1.46c0,0.18-0.06,0.23-0.23,0.24c-0.27,0.01-0.54,0-0.81,0
		c-0.05,0-0.14-0.02-0.15-0.05c-0.12-0.26-0.26-0.11-0.41-0.04c-0.51,0.27-1.04,0.26-1.58,0.08c-0.25-0.08-0.45-0.25-0.59-0.47
		c-0.44-0.67-0.28-1.68,0.44-2.11c0.29-0.17,0.59-0.28,0.92-0.32c0.31-0.04,0.62-0.09,0.94-0.09c0.14,0,0.2-0.11,0.16-0.23
		c-0.05-0.15-0.14-0.25-0.29-0.29c-0.32-0.08-0.62-0.03-0.82,0.22c-0.18,0.22-0.35,0.24-0.59,0.17c-0.19-0.06-0.39-0.07-0.59-0.11
		c-0.2-0.04-0.25-0.12-0.17-0.3c0.17-0.41,0.43-0.75,0.85-0.92c0.7-0.28,1.42-0.3,2.13-0.01c0.4,0.16,0.64,0.47,0.72,0.89
		c0.05,0.25,0.07,0.51,0.07,0.77c0,0.37,0,0.74,0,1.11C59.92,21.55,59.93,21.55,59.93,21.55z M57.73,22.29
		c0.36-0.05,0.67-0.17,0.84-0.52c0.19-0.38,0.1-0.51-0.31-0.51c-0.29,0.01-0.57,0.06-0.82,0.2c-0.17,0.1-0.26,0.3-0.22,0.47
		c0.04,0.19,0.18,0.28,0.36,0.32C57.63,22.28,57.68,22.29,57.73,22.29z"/>
	<path class="st0" d="M49.51,23.01c-0.07,0.04-0.12,0.06-0.17,0.09c-0.46,0.3-0.97,0.31-1.49,0.2c-0.49-0.1-0.81-0.42-0.94-0.9
		c-0.21-0.75,0.06-1.6,0.93-1.91c0.45-0.16,0.92-0.2,1.39-0.25c0.07-0.01,0.14,0,0.21-0.01c0.06-0.01,0.1-0.05,0.1-0.12
		c0.01-0.18-0.07-0.31-0.23-0.37c-0.29-0.11-0.56-0.08-0.81,0.11c-0.07,0.05-0.12,0.12-0.17,0.19c-0.08,0.11-0.18,0.13-0.3,0.11
		c-0.28-0.05-0.56-0.1-0.84-0.16c-0.15-0.03-0.19-0.11-0.14-0.25c0.13-0.36,0.36-0.65,0.68-0.86c0.21-0.13,0.44-0.22,0.68-0.25
		c0.48-0.07,0.97-0.09,1.44,0.06c0.51,0.16,0.82,0.49,0.93,1.02c0.05,0.24,0.06,0.48,0.06,0.72c0,0.61,0,1.23,0,1.84
		c0,0.24,0.02,0.48,0.02,0.73c0.01,0.17-0.04,0.22-0.23,0.23c-0.24,0.01-0.49-0.01-0.73,0.01C49.71,23.27,49.58,23.2,49.51,23.01z
		 M49.13,21.27c-0.05,0-0.16,0.01-0.28,0.03c-0.1,0.02-0.19,0.04-0.29,0.07c-0.17,0.05-0.31,0.15-0.4,0.3
		c-0.13,0.22-0.04,0.47,0.2,0.55c0.43,0.16,0.96-0.08,1.13-0.5C49.65,21.37,49.57,21.26,49.13,21.27z"/>
	<path class="st0" d="M53.46,21.18c0.02-0.04,0.06-0.09,0.07-0.14c0.21-0.7,0.51-1.37,0.66-2.08c0.05-0.22,0.1-0.26,0.32-0.27
		c0.33-0.01,0.66,0,0.99,0c0.13,0,0.18,0.08,0.15,0.2c-0.02,0.07-0.05,0.13-0.07,0.2c-0.55,1.47-1.1,2.94-1.66,4.41
		c-0.07,0.17-0.14,0.35-0.23,0.5c-0.27,0.45-0.67,0.69-1.2,0.71c-0.29,0.01-0.57-0.01-0.85-0.09c-0.12-0.04-0.18-0.1-0.17-0.21
		c0.03-0.28,0.06-0.57,0.1-0.85c0.01-0.1,0.09-0.15,0.19-0.13c0.1,0.02,0.19,0.05,0.29,0.06c0.4,0.05,0.75-0.35,0.65-0.74
		c-0.03-0.11-0.08-0.21-0.12-0.32c-0.42-1.11-0.85-2.22-1.27-3.32c-0.03-0.07-0.05-0.13-0.07-0.2c-0.05-0.15,0-0.22,0.15-0.22
		c0.31,0,0.63,0,0.94,0c0.23,0,0.28,0.03,0.33,0.25c0.15,0.72,0.46,1.38,0.66,2.08C53.34,21.1,53.35,21.16,53.46,21.18z"/>
	<path class="st0" d="M33.31,21.01c0,0.59,0,1.17,0,1.76c0,0.1,0,0.2,0,0.3c-0.01,0.1-0.06,0.17-0.16,0.17
		c-0.34,0.01-0.69,0.01-1.03,0c-0.14-0.01-0.16-0.13-0.16-0.26c0-0.09-0.07-0.11-0.14-0.05c-0.32,0.3-0.7,0.43-1.13,0.43
		c-0.76-0.01-1.3-0.48-1.4-1.23c-0.02-0.13-0.02-0.26-0.02-0.39c0-0.66-0.01-1.31-0.01-1.97c0-0.29,0.01-0.57-0.03-0.86
		c-0.02-0.13,0.07-0.22,0.2-0.22c0.33,0,0.66,0,0.99,0c0.1,0,0.16,0.06,0.17,0.15c0.01,0.04,0.01,0.09,0,0.13
		c-0.05,0.76-0.01,1.51-0.02,2.27c0,0.1-0.01,0.2,0,0.3c0.03,0.4,0.36,0.6,0.73,0.46c0.41-0.16,0.68-0.55,0.67-1
		c0-0.36-0.02-0.71-0.02-1.07c0-0.33-0.01-0.66,0-0.99c0-0.2,0.06-0.25,0.26-0.26c0.29-0.01,0.57-0.01,0.86,0
		c0.2,0,0.24,0.05,0.25,0.26c0,0.63,0,1.26,0,1.89C33.31,20.9,33.31,20.95,33.31,21.01C33.31,21.01,33.31,21.01,33.31,21.01z"/>
	<path class="st0" d="M25.26,7.68c0.19,0,0.37,0,0.56,0c0.16,0.01,0.2,0.05,0.19,0.21c-0.09,1.18-0.03,2.37-0.05,3.56
		c-0.01,0.74,0,1.49,0.01,2.23c0,0.23,0.03,0.46,0.04,0.68c0.01,0.13-0.04,0.2-0.16,0.2c-0.43,0-0.86,0-1.29,0
		c-0.1,0-0.14-0.08-0.16-0.17c0-0.03,0-0.06,0-0.09c0.09-0.54,0.06-1.08,0.06-1.63c0-1.27,0-2.54,0-3.82c0-0.31-0.01-0.63-0.06-0.94
		c-0.03-0.17,0.04-0.24,0.22-0.24C24.83,7.68,25.04,7.68,25.26,7.68z"/>
	<path class="st0" d="M43.29,11.16c0-0.99,0-1.97,0-2.96c0-0.06,0-0.11,0-0.17c0.01-0.27,0.07-0.34,0.32-0.34
		c0.34-0.01,0.69,0,1.03,0c0.12,0,0.19,0.08,0.16,0.2c-0.08,0.32-0.05,0.65-0.05,0.98c0,1.47,0,2.94,0,4.41
		c0,0.36-0.03,0.71,0.05,1.07c0.03,0.14-0.04,0.21-0.19,0.22c-0.37,0.01-0.74,0.01-1.11,0c-0.16,0-0.21-0.05-0.21-0.2
		c0-0.09,0-0.17,0-0.26c0-0.99,0-1.97,0-2.96C43.28,11.16,43.28,11.16,43.29,11.16z"/>
	<path class="st0" d="M35.27,21.99c0.01,0.34,0.02,0.69,0.03,1.03c0,0.18-0.04,0.23-0.22,0.23c-0.31,0-0.63,0.01-0.94,0
		c-0.18,0-0.24-0.06-0.22-0.23c0.13-1.17,0.04-2.34,0.06-3.51c0-0.16-0.03-0.31-0.04-0.47c-0.03-0.29,0-0.34,0.28-0.34
		c0.26-0.01,0.51-0.01,0.77,0c0.21,0,0.21,0.01,0.29,0.27c0.02,0.08,0.09,0.11,0.16,0.06c0.03-0.03,0.06-0.06,0.1-0.08
		c0.42-0.37,0.91-0.38,1.41-0.3c0.18,0.03,0.23,0.12,0.19,0.31c-0.07,0.31-0.14,0.61-0.22,0.92c-0.04,0.14-0.1,0.18-0.25,0.15
		c-0.08-0.01-0.17-0.04-0.25-0.05c-0.59-0.1-1.05,0.23-1.13,0.82c-0.02,0.13-0.01,0.26-0.01,0.38
		C35.27,21.44,35.27,21.71,35.27,21.99C35.27,21.99,35.27,21.99,35.27,21.99z"/>
</g>
<g>
	<path class="st0" d="M12.38,17.89c0.05,1.19,0.03,2.48,0.05,3.77c0,0.17,0.03,0.34,0.13,0.48c0.1,0.14,0.19,0.15,0.33,0.05
		c0.05-0.04,0.09-0.08,0.14-0.12c0.05-0.05,0.12-0.08,0.19-0.09c0.15-0.03,0.28,0.07,0.3,0.22c0.01,0.07,0,0.14,0.02,0.21
		c0.01,0.07,0.09,0.1,0.14,0.07c0.05-0.03,0.1-0.07,0.15-0.11c0.44-0.33,1.08-0.25,1.42,0.18c0.03,0.03,0.05,0.07,0.07,0.1
		c0.11,0.13,0.24,0.18,0.4,0.11c0.07-0.03,0.15-0.05,0.22-0.09c0.26-0.13,0.52-0.26,0.78-0.39c0.23-0.12,0.39-0.32,0.55-0.5
		c0.08-0.09,0.06-0.18-0.03-0.27c-0.07-0.07-0.15-0.13-0.25-0.17c-0.39-0.15-0.64-0.44-0.82-0.8c-0.08-0.14-0.15-0.28-0.21-0.43
		c-0.11-0.27-0.01-0.48,0.17-0.65c0.11-0.1,0.24-0.13,0.39-0.08c0.14,0.04,0.25,0.11,0.36,0.21c0.08,0.07,0.15,0.14,0.23,0.19
		c0.17,0.1,0.3,0.07,0.41-0.09c0.21-0.3,0.17-0.6-0.13-0.81c-0.21-0.15-0.44-0.25-0.67-0.33c-0.48-0.17-0.97-0.33-1.46-0.48
		c-0.43-0.13-0.87-0.24-1.3-0.36c-0.17-0.04-0.33-0.1-0.48-0.18c-0.11-0.06-0.2-0.13-0.27-0.23c-0.09-0.12-0.08-0.24,0.04-0.35
		c0.17-0.15,0.38-0.18,0.59-0.13c0.17,0.04,0.32,0.11,0.47,0.19c0.2,0.11,0.42,0.19,0.65,0.24c0.12,0.02,0.24,0.03,0.36,0.01
		c0.08-0.01,0.13-0.05,0.15-0.13c0.02-0.06-0.01-0.12-0.05-0.17c-0.06-0.07-0.14-0.12-0.22-0.15c-0.22-0.09-0.44-0.19-0.67-0.27
		c-0.32-0.12-0.64-0.24-0.95-0.36c-0.09-0.04-0.18-0.08-0.26-0.15c-0.18-0.17-0.14-0.41,0.09-0.51c0.12-0.05,0.23-0.06,0.35-0.02
		c0.16,0.06,0.32,0.11,0.48,0.17c0.42,0.16,0.85,0.3,1.3,0.36c0.37,0.05,0.74,0.05,1.11,0c0.21-0.03,0.42-0.04,0.63-0.03
		c0.22,0.01,0.41,0.07,0.59,0.19c0.27,0.17,0.53,0.37,0.76,0.59c0.26,0.24,0.5,0.49,0.75,0.74c0.26,0.26,0.52,0.53,0.8,0.77
		c0.09,0.08,0.18,0.16,0.25,0.25c0.08,0.11,0.18,0.15,0.31,0.16c0.09,0.01,0.18,0,0.27,0.01c0.29,0.03,0.54,0.13,0.75,0.34
		c0.14,0.14,0.13,0.25,0.01,0.39c-0.09,0.1-0.19,0.18-0.3,0.25c-0.08,0.04-0.16,0.09-0.23,0.15c-0.11,0.09-0.17,0.2-0.16,0.34
		c0.01,0.12,0.01,0.24,0.02,0.36c0.06,0.55,0.05,1.1-0.02,1.65c-0.03,0.27-0.13,0.52-0.25,0.77c-0.49,0.96-1.23,1.64-2.21,2.09
		c-0.35,0.16-0.7,0.3-1.06,0.41c-0.3,0.1-0.59,0.19-0.88,0.3c-0.18,0.07-0.35,0.14-0.52,0.23c-0.32,0.17-0.37,0.34-0.23,0.67
		c0.03,0.07,0.08,0.14,0.11,0.22c0.11,0.26,0.03,0.45-0.24,0.54c-0.15,0.05-0.3,0.04-0.45,0.01c-0.34-0.07-0.63-0.25-0.92-0.43
		c-0.09-0.06-0.12-0.15-0.13-0.26c-0.01-0.22-0.01-0.44-0.02-0.66c0-0.08-0.03-0.14-0.11-0.16c-0.43-0.13-0.86-0.27-1.32-0.28
		c-0.12,0-0.14,0.01-0.15,0.13c-0.01,0.14-0.02,0.28-0.03,0.42c-0.01,0.12-0.03,0.13-0.15,0.13c-0.27,0-0.54-0.01-0.81-0.01
		c-0.13,0-0.26,0-0.39,0.02c-0.12,0.02-0.24-0.02-0.36-0.02c-0.3-0.01-0.6-0.01-0.9-0.01c-0.38,0-0.35,0.02-0.32-0.37
		c0.02-0.28,0.03-0.56,0.03-0.84c0-0.24,0-0.25-0.23-0.31C9,24.62,8.45,24.47,7.9,24.31c-0.3-0.08-0.6-0.17-0.9-0.25
		c-0.66-0.17-1.32-0.19-2-0.13C4.35,24,3.72,24.15,3.08,24.28c-0.46,0.09-0.86,0.32-1.21,0.64c-0.14,0.13-0.29,0.24-0.44,0.36
		c-0.06,0.05-0.14,0.08-0.21,0.11c-0.05,0.02-0.1-0.03-0.11-0.07C1.09,25.19,1.15,25.1,1.21,25c0.15-0.25,0.34-0.47,0.55-0.67
		C1.89,24.22,2.02,24.1,2.15,24c0.21-0.17,0.44-0.32,0.65-0.48c0.66-0.49,1.41-0.8,2.21-0.99c0.93-0.22,1.87-0.35,2.83-0.32
		c0.51,0.01,1.02,0.04,1.53,0.07c0.46,0.03,0.42,0.06,0.46-0.43c0.02-0.22,0.01-0.44,0.02-0.66c0.02-0.7,0.03-1.4,0.07-2.1
		c0.04-0.6,0.02-1.2,0.06-1.8c0.04-0.71,0.03-1.42,0.06-2.13c0.04-0.67,0.03-1.34,0.04-2.01c0-0.1,0-0.2-0.03-0.3
		c-0.04-0.11-0.11-0.15-0.21-0.11c-0.09,0.03-0.19,0.08-0.27,0.13c-0.44,0.27-0.89,0.55-1.32,0.83c-0.44,0.29-0.81,0.65-1.14,1.06
		c-0.13,0.16-0.26,0.33-0.4,0.49c-0.33,0.39-0.35,0.81-0.18,1.27c0.12,0.33,0.33,0.62,0.56,0.88c0.3,0.33,0.61,0.63,0.95,0.92
		c0.28,0.24,0.55,0.5,0.81,0.77c0.36,0.37,0.54,0.81,0.51,1.33c-0.01,0.15-0.01,0.3-0.01,0.45c0,0.21-0.13,0.31-0.28,0.32
		c-0.32,0.04-0.62,0-0.89-0.19c-0.07-0.05-0.13-0.1-0.19-0.14c-0.29-0.21-0.62-0.32-0.97-0.38c-0.07-0.01-0.14-0.01-0.21-0.01
		c-0.05,0-0.1,0.02-0.13,0.07c-0.03,0.05,0,0.1,0.03,0.14c0.02,0.03,0.05,0.06,0.08,0.09c0.06,0.07,0.07,0.15,0.03,0.22
		c-0.05,0.09-0.14,0.15-0.25,0.13c-0.09-0.01-0.17-0.05-0.25-0.09c-0.55-0.27-1.06-0.6-1.53-1c-0.46-0.4-0.85-0.85-1.23-1.32
		c-0.1-0.13-0.21-0.25-0.33-0.35c-0.18-0.15-0.32-0.16-0.47,0.01c-0.17,0.18-0.36,0.2-0.58,0.16c-0.17-0.03-0.33-0.08-0.49-0.15
		c-0.33-0.15-0.56-0.38-0.7-0.71c-0.15-0.36-0.22-0.75-0.29-1.13c-0.07-0.36-0.11-0.73-0.16-1.1c-0.02-0.19-0.03-0.38,0.02-0.57
		c0.06-0.25,0.14-0.31,0.4-0.3c0.23,0.01,0.43,0.09,0.62,0.2c0.13,0.08,0.25,0.17,0.35,0.28c0.13,0.14,0.28,0.26,0.43,0.37
		c0.26,0.18,0.36,0.14,0.42-0.18c0.03-0.16,0.06-0.32,0.06-0.48c0.01-0.3,0.09-0.57,0.2-0.84c0.15-0.36,0.33-0.71,0.53-1.05
		c0.19-0.31,0.44-0.57,0.71-0.81c0.28-0.25,0.55-0.5,0.83-0.75c0.1-0.09,0.12-0.17,0.06-0.29c-0.11-0.2-0.08-0.43-0.13-0.65
		C5.02,10.25,5,10.11,4.98,9.97C4.96,9.77,4.94,9.57,5,9.37c0.03-0.1,0.09-0.15,0.19-0.16C5.37,9.2,5.51,9.24,5.64,9.36
		C5.8,9.53,5.98,9.7,6.15,9.87c0.18,0.19,0.36,0.37,0.54,0.57c0.07,0.08,0.16,0.12,0.27,0.1c0.73-0.12,1.46-0.06,2.19-0.05
		c0.2,0,0.4,0.02,0.6,0.04c0.08,0,0.16,0.01,0.24,0.01c0.23,0.01,0.23,0.01,0.23-0.23c0-0.17,0-0.34,0-0.51c0-0.08,0-0.16,0-0.24
		c0.01-0.08,0.05-0.13,0.13-0.15c0.06-0.01,0.12-0.03,0.17-0.05c0.08-0.04,0.12-0.13,0.11-0.23c-0.01-0.08-0.07-0.13-0.17-0.14
		c-0.08-0.01-0.16-0.01-0.24-0.02c-0.07-0.01-0.1-0.07-0.07-0.13c0.17-0.37,0.34-0.75,0.6-1.07c0.12-0.16,0.26-0.31,0.39-0.46
		c0.08-0.09,0.12-0.09,0.19,0c0.3,0.35,0.56,0.73,0.74,1.16c0.04,0.1,0.09,0.2,0.12,0.31c0.04,0.14,0.01,0.18-0.13,0.21
		C11.99,8.98,11.92,8.98,11.85,9c-0.07,0.02-0.12,0.07-0.13,0.15c-0.01,0.08,0.03,0.14,0.09,0.18c0.06,0.03,0.13,0.05,0.2,0.08
		c0.09,0.03,0.13,0.09,0.12,0.18c-0.01,0.34,0.01,0.68-0.03,1.02c-0.03,0.2,0.01,0.25,0.21,0.28c0.15,0.02,0.3,0.05,0.43-0.08
		c0.49-0.22,1-0.36,1.54-0.29c0.21,0.03,0.42,0.02,0.62,0.09c0.11,0.03,0.23,0.07,0.34,0.12c0.25,0.12,0.28,0.3,0.08,0.49
		c-0.04,0.03-0.08,0.06-0.11,0.1c-0.09,0.1-0.11,0.21-0.06,0.34c0.04,0.1,0.13,0.15,0.24,0.16c0.55,0.04,1.08,0.02,1.59-0.22
		c0.45-0.21,0.84-0.5,1.22-0.82c0.33-0.28,0.65-0.57,0.97-0.86c0.27-0.26,0.59-0.37,0.96-0.34c0.27,0.02,0.39,0.19,0.32,0.45
		c-0.02,0.09-0.06,0.17-0.1,0.25c-0.26,0.6-0.58,1.17-0.92,1.72c-0.2,0.33-0.42,0.66-0.63,0.99c-0.08,0.12-0.17,0.22-0.26,0.33
		c-0.19,0.24-0.44,0.29-0.73,0.27c-0.6-0.05-1.18-0.21-1.76-0.37c-0.22-0.06-0.45-0.11-0.67-0.17c-0.07-0.02-0.14-0.03-0.21-0.04
		c-0.11-0.01-0.15,0.03-0.13,0.14c0.04,0.15,0.04,0.3,0.05,0.45c0.01,0.19-0.13,0.41-0.37,0.44c-0.41,0.05-0.8,0.02-1.16-0.22
		c-0.35-0.24-0.67-0.51-0.95-0.83c-0.03-0.04-0.06-0.08-0.1-0.11c-0.03-0.02-0.07-0.01-0.07,0.02c-0.01,0.07-0.02,0.14-0.02,0.21
		c-0.02,0.62-0.04,1.24-0.04,1.86C12.39,15.9,12.38,16.84,12.38,17.89z"/>
	<path class="st0" d="M11.23,1.63c0.08-0.05,0.17-0.11,0.25-0.16c0.8-0.55,1.67-0.89,2.63-1.04c0.46-0.07,0.92-0.11,1.38-0.11
		c1.18-0.02,2.37-0.04,3.55-0.06c0.46-0.01,0.92-0.04,1.37-0.17c0.04-0.01,0.08,0,0.11,0c0.04,0.07,0.03,0.14,0.03,0.21
		c0,1.11,0,2.23,0,3.34c0,0.04,0,0.08,0,0.12c-0.01,0.09-0.03,0.13-0.12,0.14c-0.27,0.03-0.54,0.06-0.81,0.09
		c-0.8,0.08-1.6,0.07-2.4,0.09c-0.57,0.01-1.14,0.02-1.71,0.04c-0.51,0.02-1.02,0.08-1.52,0.2c-0.88,0.22-1.67,0.61-2.33,1.25
		c-0.11,0.1-0.22,0.21-0.32,0.32c-0.03,0.03-0.06,0.06-0.1,0.04C11.23,4.48,11.23,3.06,11.23,1.63z"/>
	<path class="st0" d="M11.23,1.63c0,1.43,0,2.85,0,4.28c-0.08-0.01-0.11-0.08-0.16-0.13c-0.55-0.59-1.22-1-1.97-1.3
		C8.63,4.3,8.14,4.22,7.64,4.16c-0.87-0.1-1.74-0.09-2.61-0.1c-0.7-0.01-1.4,0-2.1-0.07C2.66,3.95,2.39,3.93,2.12,3.9
		c-0.18-0.02-0.19-0.04-0.2-0.23c0-0.06,0-0.12,0-0.18c0-1.04,0-2.09,0-3.13c0-0.07,0-0.14,0-0.21c0-0.06,0.05-0.08,0.1-0.07
		c0.03,0,0.06,0.01,0.09,0.02c0.4,0.1,0.81,0.15,1.22,0.15c1.24,0.02,2.49,0.05,3.73,0.06c0.7,0.01,1.38,0.1,2.05,0.27
		c0.62,0.16,1.18,0.43,1.72,0.78C10.97,1.45,11.1,1.54,11.23,1.63z"/>
	<path class="st0" d="M11.11,32.09c-1.95,0-3.91,0-5.86,0c-0.01,0-0.02,0-0.03,0c-0.08-0.01-0.18,0.03-0.23-0.04
		c-0.06-0.09-0.04-0.21-0.01-0.32c0.02-0.06,0.07-0.1,0.13-0.11c0.09-0.02,0.18-0.03,0.27-0.03c0.05,0,0.1,0.01,0.15,0.01
		c0.21,0.01,0.3,0.02,0.31-0.24c0.01-0.15,0.08-0.2,0.25-0.2c0.24,0,0.48,0.02,0.72,0.03c0.08,0,0.16,0,0.24,0
		c0.15,0.01,0.21-0.01,0.23-0.2c0.02-0.17,0.04-0.19,0.2-0.19c0.13,0,0.26-0.01,0.39,0c0.21,0.01,0.37-0.06,0.5-0.22
		c0.16-0.19,0.33-0.38,0.48-0.58c0.13-0.17,0.26-0.35,0.38-0.54c0.26-0.39,0.42-0.82,0.45-1.29c0-0.05,0.01-0.1,0.02-0.15
		c0.01-0.06,0.05-0.08,0.1-0.09c0.02,0,0.04,0,0.06,0c0.89,0,1.78,0,2.68,0.01c0.04,0,0.08,0,0.12,0c0.09,0.01,0.13,0.03,0.12,0.13
		c-0.01,0.34,0.1,0.65,0.21,0.96c0.09,0.27,0.23,0.51,0.41,0.73c0.21,0.24,0.4,0.5,0.6,0.75c0.21,0.26,0.21,0.26,0.56,0.25
		c0.13,0,0.26-0.01,0.39-0.01c0.08,0,0.13,0.04,0.13,0.13c0,0.04,0.01,0.08,0.01,0.12c0.03,0.16,0.06,0.19,0.22,0.19
		c0.2,0,0.4,0,0.6-0.01c0.1,0,0.2-0.01,0.3,0c0.21,0,0.21,0,0.29,0.22c0.07,0.19,0.07,0.19,0.28,0.2c0.11,0.01,0.22,0.01,0.33,0.02
		c0.1,0.01,0.14,0.06,0.14,0.16c0,0.07,0,0.14-0.01,0.21c-0.01,0.05-0.04,0.09-0.1,0.09c-0.09,0-0.18,0-0.27,0
		c-1.92,0-3.85,0-5.77,0C11.11,32.07,11.11,32.08,11.11,32.09z"/>
	<path class="st0" d="M11.23,6.37c0.14-0.12,0.27-0.24,0.41-0.36c0.2-0.17,0.4-0.34,0.6-0.5c0.72-0.57,1.54-0.87,2.44-1
		c0.54-0.08,1.08-0.08,1.62-0.09c0.63-0.01,1.26-0.02,1.89-0.02c0.71-0.01,1.42-0.07,2.12-0.18c0.05-0.01,0.1-0.01,0.15-0.01
		c0.04,0,0.07,0.03,0.08,0.08c0,0.17,0,0.34,0,0.52C20,4.9,19.48,4.99,18.95,5c-0.85,0.01-1.7,0.02-2.55,0.03
		c-0.55,0.01-1.1,0-1.65,0.09c-0.27,0.04-0.54,0.08-0.8,0.14c-0.48,0.11-0.93,0.32-1.33,0.61c-0.39,0.29-0.76,0.58-1.15,0.87
		c-0.08,0.06-0.14,0.15-0.25,0.15C11.22,6.72,11.23,6.55,11.23,6.37z"/>
	<path class="st0" d="M11.23,6.37c0,0.17-0.01,0.35-0.01,0.52c-0.11-0.02-0.17-0.1-0.25-0.16c-0.3-0.22-0.59-0.45-0.88-0.68
		C9.41,5.5,8.62,5.22,7.75,5.12c-0.68-0.08-1.36-0.09-2.04-0.1C5.01,5.01,4.31,5,3.6,5c-0.53,0-1.06-0.09-1.58-0.17
		c-0.07-0.01-0.1-0.05-0.11-0.12c0-0.04,0-0.08,0-0.12c0.01-0.43-0.08-0.41,0.4-0.34C2.83,4.33,3.35,4.39,3.87,4.4
		C4.58,4.41,5.29,4.41,6,4.43C6.44,4.43,6.87,4.43,7.3,4.46c0.85,0.06,1.66,0.25,2.4,0.7c0.36,0.22,0.69,0.48,1.01,0.76
		C10.89,6.07,11.06,6.22,11.23,6.37z"/>
	<path class="st0" d="M11.22,27.09c-0.44,0-0.88,0-1.32,0c-0.17,0-0.18-0.01-0.18-0.16c0-0.27-0.01-0.27,0.26-0.27
		c0.83,0,1.66,0,2.49,0c0.05,0,0.1,0,0.15,0c0.06,0,0.09,0.04,0.1,0.1c0,0.02,0.01,0.04,0.01,0.06c0.02,0.26,0.02,0.27-0.24,0.27
		C12.05,27.09,11.64,27.09,11.22,27.09C11.22,27.09,11.22,27.09,11.22,27.09z"/>
	<path class="st0" d="M11.22,27.65c-0.42,0-0.84,0-1.26,0c-0.06,0-0.12,0-0.18-0.01c-0.02,0-0.06-0.03-0.06-0.05
		c-0.01-0.07,0-0.14,0.01-0.21c0-0.02,0.04-0.04,0.07-0.05c0.05-0.01,0.1-0.01,0.15-0.01c0.86,0,1.72,0,2.58,0c0.04,0,0.08,0,0.12,0
		c0.06,0,0.09,0.03,0.1,0.09c0,0.03,0,0.06,0,0.09c0,0.1-0.02,0.13-0.11,0.14c-0.07,0-0.14,0-0.21,0
		C12.02,27.65,11.62,27.65,11.22,27.65C11.22,27.65,11.22,27.65,11.22,27.65z"/>
</g>
<g>
	<path class="st0" d="M25.65,31.03c-0.17-0.01-0.33-0.01-0.5-0.04c-0.49-0.1-0.77-0.62-0.77-0.99c0-0.16,0.06-0.24,0.21-0.26
		c0.14-0.02,0.28-0.04,0.42-0.05c0.2-0.01,0.23,0.01,0.3,0.21c0.11,0.28,0.36,0.39,0.64,0.28c0.06-0.03,0.12-0.07,0.18-0.11
		c0.24-0.21,0.2-0.47-0.1-0.59c-0.2-0.07-0.4-0.14-0.6-0.19c-0.54-0.13-0.8-0.57-0.69-1.17c0.08-0.41,0.3-0.72,0.67-0.92
		c0.47-0.25,0.95-0.32,1.45-0.06c0.31,0.17,0.48,0.42,0.51,0.77c0.01,0.12-0.03,0.19-0.15,0.22c-0.14,0.03-0.28,0.03-0.42,0.06
		c-0.19,0.03-0.31,0-0.39-0.21c-0.07-0.2-0.27-0.17-0.44-0.15c-0.16,0.02-0.28,0.11-0.34,0.28c-0.04,0.11,0.01,0.22,0.11,0.29
		c0.1,0.06,0.2,0.09,0.32,0.11c0.21,0.04,0.41,0.09,0.6,0.19c0.46,0.23,0.63,0.61,0.53,1.12c-0.1,0.52-0.39,0.89-0.87,1.12
		C26.1,31.03,25.87,31.03,25.65,31.03z"/>
	<path class="st0" d="M66.09,30.87c-0.09,0-0.15,0.01-0.2,0.01c-0.13,0.01-0.22-0.05-0.28-0.16c-0.03-0.06-0.06-0.13-0.09-0.19
		c-0.17-0.4-0.34-0.8-0.5-1.2c-0.06-0.16-0.12-0.32-0.17-0.47c-0.02-0.07-0.05-0.13-0.11-0.17c-0.02-0.01-0.05-0.02-0.08-0.02
		c-0.02,0-0.05,0.02-0.06,0.04c-0.01,0.02-0.02,0.05-0.02,0.08c-0.09,0.64-0.17,1.28-0.26,1.92c-0.01,0.1-0.07,0.15-0.16,0.16
		c-0.06,0.01-0.11,0.01-0.17,0.01c-0.37,0-0.45,0.02-0.37-0.41c0.19-0.98,0.34-1.96,0.46-2.95c0.04-0.36,0.05-0.37,0.41-0.38
		c0.3-0.01,0.41,0.06,0.54,0.36c0.24,0.55,0.47,1.11,0.7,1.67c0.02,0.05,0.03,0.11,0.07,0.15c0.02,0.03,0.07,0.05,0.1,0.05
		c0.05,0.01,0.08-0.03,0.09-0.07c0.01-0.04,0.02-0.08,0.02-0.12c0.01-0.63,0.2-1.25,0.25-1.88c0.01-0.1,0.07-0.15,0.17-0.15
		c0.63-0.01,0.59-0.01,0.51,0.53c-0.11,0.75-0.24,1.5-0.36,2.24c-0.04,0.24-0.06,0.47-0.1,0.71c-0.04,0.23-0.05,0.23-0.26,0.24
		C66.17,30.87,66.12,30.87,66.09,30.87z"/>
	<path class="st0" d="M58.53,30.93c-0.07,0-0.14,0-0.21,0c-0.14-0.01-0.2-0.08-0.17-0.22c0.06-0.33,0.13-0.66,0.17-1
		c0.03-0.22,0.05-0.45,0.06-0.67c0-0.23-0.15-0.32-0.37-0.23c-0.29,0.12-0.48,0.32-0.52,0.65c-0.04,0.32-0.09,0.64-0.14,0.96
		c-0.01,0.1-0.03,0.19-0.05,0.29c-0.02,0.11-0.09,0.17-0.19,0.2c-0.18,0.05-0.36,0.05-0.54,0.01c-0.09-0.02-0.14-0.09-0.12-0.19
		c0.11-0.69,0.23-1.38,0.34-2.08c0.07-0.46,0.14-0.92,0.2-1.37c0.02-0.14,0.05-0.18,0.18-0.19c0.14-0.01,0.28-0.02,0.42-0.01
		c0.17,0.01,0.26,0.11,0.24,0.28c-0.03,0.19-0.08,0.38-0.11,0.58c-0.01,0.05-0.02,0.11-0.02,0.16c0,0.04,0.05,0.08,0.09,0.06
		c0.06-0.02,0.12-0.06,0.18-0.1c0.22-0.11,0.45-0.16,0.69-0.11c0.41,0.08,0.64,0.34,0.61,0.77c-0.02,0.28-0.08,0.56-0.11,0.83
		c-0.04,0.36-0.13,0.72-0.14,1.08c0,0.21-0.08,0.27-0.28,0.29C58.67,30.94,58.6,30.93,58.53,30.93
		C58.53,30.93,58.53,30.93,58.53,30.93z"/>
	<path class="st0" d="M68.65,27.96c0.08,0,0.17-0.01,0.25,0c0.54,0.06,0.8,0.38,0.74,0.91c-0.02,0.17-0.04,0.33-0.07,0.5
		c-0.07,0.42-0.14,0.83-0.17,1.25c-0.01,0.24-0.07,0.28-0.31,0.31c-0.21,0.03-0.42-0.05-0.62-0.05c-0.19,0-0.36,0.15-0.56,0.15
		c-0.01,0-0.03,0-0.04,0c-0.33,0.01-0.62-0.06-0.8-0.36c-0.19-0.32-0.15-0.65,0.04-0.96c0.14-0.22,0.35-0.37,0.59-0.46
		c0.24-0.09,0.49-0.14,0.74-0.16c0.07-0.01,0.14,0,0.21-0.01c0.13-0.01,0.19-0.08,0.19-0.18c0.01-0.13-0.06-0.22-0.18-0.25
		c-0.16-0.04-0.31-0.03-0.44,0.08c-0.23,0.19-0.49,0.19-0.76,0.12c-0.16-0.04-0.19-0.15-0.1-0.29c0.21-0.32,0.5-0.53,0.88-0.59
		c0.14-0.02,0.28-0.03,0.42-0.04C68.65,27.94,68.65,27.95,68.65,27.96z M68.45,29.74c-0.07,0.01-0.12,0.01-0.18,0.02
		c-0.17,0.02-0.32,0.08-0.44,0.21c-0.06,0.06-0.1,0.13-0.06,0.23c0.04,0.1,0.1,0.16,0.21,0.17c0.14,0.01,0.27-0.03,0.4-0.09
		c0.14-0.07,0.24-0.18,0.28-0.34c0.03-0.11-0.03-0.19-0.15-0.19C68.49,29.74,68.46,29.74,68.45,29.74z"/>
	<path class="st0" d="M32.31,28.06c0.04,0,0.08,0,0.13,0c0.25,0.01,0.27,0.03,0.23,0.27c-0.06,0.35-0.12,0.69-0.18,1.04
		c-0.03,0.19-0.06,0.39-0.06,0.58c-0.01,0.18,0.14,0.27,0.32,0.24c0.32-0.07,0.55-0.31,0.61-0.67c0.05-0.33,0.1-0.67,0.13-1
		c0.05-0.52,0.06-0.43,0.5-0.47c0.08-0.01,0.17,0,0.25,0.02c0.12,0.03,0.2,0.13,0.15,0.25c-0.16,0.43-0.14,0.88-0.23,1.32
		c-0.07,0.36-0.1,0.72-0.15,1.08c-0.03,0.22-0.09,0.26-0.3,0.27c-0.11,0-0.22,0-0.34-0.01c-0.04,0-0.1,0-0.12-0.02
		c-0.14-0.21-0.29-0.12-0.46-0.03c-0.15,0.09-0.32,0.11-0.49,0.1c-0.5-0.02-0.8-0.36-0.74-0.87c0.06-0.46,0.13-0.92,0.19-1.37
		c0.03-0.19,0.06-0.39,0.09-0.58c0.02-0.1,0.08-0.15,0.17-0.15C32.11,28.06,32.21,28.06,32.31,28.06
		C32.31,28.06,32.31,28.06,32.31,28.06z"/>
	<path class="st0" d="M43.3,28.79c-0.03,0.24-0.06,0.47-0.09,0.71c-0.06,0.39-0.13,0.77-0.18,1.16c-0.03,0.19-0.14,0.27-0.31,0.27
		c-0.04,0-0.08,0-0.13,0c-0.33,0-0.47,0.02-0.37-0.42c0.09-0.4,0.13-0.8,0.19-1.2c0.01-0.07,0.02-0.14,0.02-0.21
		c0.01-0.29-0.13-0.39-0.39-0.28c-0.3,0.12-0.47,0.34-0.52,0.66c-0.05,0.32-0.08,0.64-0.13,0.96c-0.06,0.5-0.06,0.5-0.57,0.49
		c-0.06,0-0.11,0-0.17,0c-0.14-0.01-0.2-0.08-0.17-0.23c0.05-0.28,0.12-0.55,0.16-0.82c0.07-0.46,0.12-0.92,0.19-1.37
		c0.07-0.49,0.07-0.43,0.48-0.44c0.1,0,0.22-0.03,0.29,0.02c0.18,0.14,0.3,0.04,0.45-0.04c0.19-0.1,0.4-0.12,0.61-0.1
		c0.37,0.05,0.58,0.26,0.61,0.63c0.01,0.07,0,0.14,0,0.21C43.29,28.79,43.29,28.79,43.3,28.79z"/>
	<path class="st0" d="M77.86,30.93c-0.39,0-0.4-0.02-0.34-0.42c0.06-0.42,0.12-0.83,0.18-1.25c0.01-0.08,0.02-0.17,0.01-0.25
		c-0.01-0.2-0.16-0.29-0.35-0.21c-0.27,0.12-0.48,0.29-0.52,0.61c-0.05,0.35-0.11,0.69-0.16,1.04c-0.01,0.04-0.01,0.08-0.01,0.13
		c-0.03,0.35-0.1,0.37-0.38,0.36c-0.11,0-0.22,0.01-0.34-0.01c-0.13-0.02-0.18-0.1-0.16-0.24c0.05-0.25,0.1-0.49,0.14-0.74
		c0.08-0.51,0.15-1.03,0.23-1.54c0.01-0.07,0.02-0.14,0.04-0.21c0.02-0.07,0.07-0.13,0.15-0.13c0.22,0.01,0.45-0.07,0.66,0.06
		c0.09,0.05,0.16,0.03,0.23-0.01c0.17-0.11,0.36-0.16,0.56-0.17c0.5-0.03,0.83,0.29,0.83,0.79c0,0.13-0.01,0.25-0.03,0.38
		c-0.09,0.52-0.2,1.05-0.22,1.58c-0.01,0.15-0.09,0.23-0.24,0.24C78.02,30.94,77.94,30.93,77.86,30.93z"/>
	<path class="st0" d="M61.07,29.77c-0.24,0-0.48,0-0.72,0c-0.1,0-0.15,0.08-0.13,0.17c0.03,0.18,0.12,0.29,0.28,0.32
		c0.19,0.04,0.36,0.03,0.51-0.11c0.05-0.05,0.1-0.1,0.15-0.15c0.07-0.06,0.15-0.08,0.23-0.06c0.16,0.05,0.37,0.05,0.43,0.22
		c0.07,0.18-0.11,0.3-0.22,0.42c-0.43,0.42-0.93,0.56-1.51,0.36c-0.38-0.13-0.6-0.41-0.65-0.81c-0.06-0.44-0.01-0.87,0.18-1.27
		c0.24-0.5,0.61-0.83,1.18-0.91c0.61-0.08,1.04,0.21,1.2,0.8c0.07,0.26,0.05,0.53,0.03,0.79c-0.01,0.14-0.08,0.2-0.22,0.21
		C61.58,29.77,61.32,29.77,61.07,29.77C61.07,29.77,61.07,29.77,61.07,29.77z M60.81,29.11c0,0,0,0.01,0,0.01
		c0.13-0.01,0.25-0.01,0.38-0.02c0.09-0.01,0.14-0.11,0.1-0.19c-0.12-0.22-0.34-0.31-0.57-0.22c-0.12,0.05-0.22,0.12-0.3,0.23
		c-0.02,0.03-0.03,0.08-0.03,0.11c0,0.05,0.05,0.07,0.09,0.07C60.58,29.11,60.69,29.11,60.81,29.11z"/>
	<path class="st0" d="M56.08,27.98c-0.06,0-0.11,0-0.17,0c-0.38,0.01-0.43,0.04-0.48,0.43c-0.1,0.71-0.2,1.42-0.29,2.13
		c-0.01,0.06-0.01,0.11-0.02,0.17c-0.03,0.15-0.08,0.2-0.21,0.22c-0.15,0.02-0.31,0.02-0.46,0.02c-0.16,0-0.22-0.08-0.22-0.25
		c0-0.13,0.02-0.25,0.04-0.38c0.1-0.65,0.2-1.3,0.3-1.96c0.01-0.07,0.02-0.14,0.03-0.21c0.01-0.1-0.04-0.16-0.14-0.17
		c-0.1-0.01-0.2-0.01-0.29-0.01c-0.08,0-0.17,0-0.25,0c-0.28-0.01-0.34-0.09-0.3-0.37c0.02-0.14,0.03-0.28,0.06-0.42
		c0.03-0.14,0.15-0.21,0.28-0.19c0.78,0.15,1.56,0.08,2.35,0.07c0.08,0,0.17-0.01,0.25-0.02c0.11,0,0.15,0.04,0.14,0.15
		c-0.02,0.2-0.05,0.39-0.08,0.58c-0.03,0.14-0.09,0.19-0.23,0.2C56.28,27.99,56.18,27.99,56.08,27.98
		C56.08,27.98,56.08,27.98,56.08,27.98z"/>
	<path class="st0" d="M27.41,29.82c0-0.33,0.05-0.6,0.16-0.87c0.23-0.54,0.63-0.89,1.21-1c0.69-0.14,1.22,0.22,1.35,0.92
		c0.15,0.81-0.23,1.63-0.91,2.01c-0.42,0.23-0.84,0.19-1.25,0c-0.24-0.11-0.39-0.31-0.47-0.57C27.42,30.14,27.4,29.96,27.41,29.82z
		 M28.22,29.74c0,0,0,0.09,0.02,0.17c0.07,0.32,0.41,0.47,0.68,0.28c0.08-0.05,0.15-0.13,0.21-0.21c0.17-0.27,0.23-0.57,0.2-0.88
		c-0.01-0.07-0.03-0.14-0.06-0.2c-0.09-0.18-0.3-0.27-0.5-0.21c-0.15,0.05-0.27,0.15-0.35,0.28C28.29,29.2,28.22,29.42,28.22,29.74z
		"/>
	<path class="st0" d="M38.84,31.02c-0.61,0.05-1.08-0.39-1.14-1.02c-0.04-0.41,0.03-0.81,0.22-1.18c0.25-0.5,0.66-0.8,1.21-0.88
		c0.51-0.07,1.17,0.16,1.28,0.92c0.09,0.61-0.05,1.15-0.43,1.61C39.69,30.84,39.31,31.07,38.84,31.02z M38.52,29.76
		c0,0,0,0.08,0.01,0.17c0.01,0.1,0.07,0.18,0.14,0.25c0.15,0.13,0.37,0.13,0.55,0.02c0.32-0.21,0.51-0.9,0.35-1.25
		c-0.1-0.21-0.31-0.3-0.52-0.23c-0.17,0.05-0.29,0.17-0.37,0.32C38.56,29.23,38.52,29.45,38.52,29.76z"/>
	<path class="st0" d="M73,29.74c0-0.63,0.23-1.15,0.74-1.53c0.38-0.27,0.8-0.35,1.24-0.21c0.36,0.11,0.6,0.35,0.7,0.72
		c0.19,0.72-0.11,1.6-0.7,2.04c-0.44,0.33-0.91,0.33-1.4,0.15c-0.31-0.12-0.48-0.38-0.53-0.71C73.02,30.05,73.01,29.89,73,29.74z
		 M73.8,29.67c0,0.04,0,0.08,0,0.13c0.01,0.21,0.09,0.39,0.3,0.46c0.21,0.07,0.39,0,0.53-0.16c0.26-0.31,0.33-0.68,0.25-1.06
		c-0.06-0.31-0.38-0.43-0.66-0.27c-0.1,0.06-0.18,0.14-0.23,0.24C73.87,29.2,73.8,29.43,73.8,29.67z"/>
	<path class="st0" d="M46.95,29.81c0.01-0.31,0.05-0.62,0.18-0.9c0.24-0.54,0.64-0.88,1.24-0.96c0.56-0.08,1.07,0.21,1.25,0.71
		c0.01,0.03,0.02,0.05,0.03,0.08c0.2,0.71-0.17,1.67-0.8,2.08c-0.38,0.25-0.79,0.28-1.21,0.14c-0.4-0.13-0.6-0.44-0.67-0.84
		C46.95,30.01,46.95,29.91,46.95,29.81z M48.87,29.26c-0.01-0.05-0.01-0.14-0.03-0.22c-0.05-0.25-0.29-0.4-0.53-0.33
		c-0.11,0.03-0.21,0.09-0.28,0.18c-0.26,0.33-0.32,0.71-0.23,1.11c0.04,0.17,0.17,0.25,0.33,0.28c0.18,0.03,0.33-0.04,0.45-0.17
		C48.79,29.87,48.86,29.59,48.87,29.26z"/>
	<path class="st0" d="M46.71,27.72c-0.13-0.03-0.26-0.02-0.35,0.08c-0.04,0.04-0.06,0.1-0.05,0.15c0.02,0.06,0.07,0.09,0.13,0.09
		c0.11,0,0.22-0.02,0.33-0.02c0.06,0,0.11,0.04,0.11,0.1c0.02,0.2-0.01,0.39-0.08,0.58c-0.03,0.07-0.09,0.11-0.16,0.11
		c-0.03,0-0.06,0.01-0.08,0c-0.34-0.07-0.42,0.06-0.45,0.37c-0.05,0.5-0.14,1-0.21,1.5c-0.02,0.17-0.1,0.23-0.24,0.23
		c-0.17,0-0.34,0-0.5-0.01c-0.1-0.01-0.15-0.08-0.13-0.17c0.11-0.42,0.15-0.85,0.21-1.28c0.01-0.07,0.03-0.14,0.04-0.21
		c0.04-0.35,0.04-0.35-0.31-0.41c-0.12-0.02-0.18-0.09-0.16-0.2c0.02-0.15,0.05-0.3,0.08-0.45c0.02-0.09,0.08-0.14,0.18-0.14
		c0.12,0,0.25,0.06,0.36-0.05c0.08-0.09,0.09-0.2,0.12-0.31c0.1-0.36,0.34-0.57,0.7-0.66c0.21-0.05,0.42-0.05,0.63-0.02
		c0.28,0.04,0.37,0.22,0.26,0.49C47.04,27.71,46.97,27.74,46.71,27.72z"/>
	<path class="st0" d="M35.44,31.02c-0.01,0-0.09,0.01-0.17,0c-0.32-0.03-0.51-0.22-0.5-0.55c0.01-0.27,0.05-0.53,0.08-0.79
		c0.02-0.17,0.06-0.33,0.08-0.5c0.05-0.3,0.05-0.3-0.25-0.36c-0.13-0.03-0.18-0.09-0.16-0.24c0.01-0.07,0.03-0.14,0.04-0.21
		c0.05-0.3,0.05-0.31,0.37-0.32c0.12-0.01,0.18-0.07,0.2-0.17c0.03-0.11,0.03-0.22,0.06-0.33c0.03-0.13,0.12-0.22,0.26-0.23
		c0.08,0,0.17,0,0.25-0.01c0.3-0.01,0.35,0.06,0.28,0.34c-0.08,0.35-0.07,0.35,0.28,0.4c0.12,0.02,0.17,0.07,0.15,0.2
		c-0.01,0.1-0.03,0.19-0.05,0.29c-0.05,0.26-0.05,0.26-0.32,0.27c-0.19,0-0.25,0.05-0.28,0.23c-0.05,0.32-0.1,0.64-0.15,0.95
		c-0.03,0.19,0.03,0.24,0.22,0.26c0.04,0,0.08,0,0.13,0.01c0.08,0.01,0.12,0.06,0.12,0.14C36.11,30.94,36.07,31.04,35.44,31.02z"/>
	<path class="st0" d="M70.89,31.02c-0.59,0-0.76-0.17-0.72-0.75c0.02-0.29,0.08-0.58,0.12-0.87c0.02-0.11,0.04-0.22,0.05-0.33
		c0.02-0.2,0.01-0.21-0.18-0.24c-0.03,0-0.06,0-0.08,0c-0.13-0.02-0.18-0.07-0.17-0.19c0.01-0.08,0.02-0.17,0.04-0.25
		c0.06-0.29,0.06-0.3,0.38-0.32c0.1-0.01,0.16-0.04,0.18-0.14c0.01-0.05,0.02-0.11,0.03-0.17c0.07-0.42,0.12-0.44,0.56-0.43
		c0.06,0,0.11,0,0.17,0.01c0.1,0.01,0.15,0.08,0.14,0.17c-0.02,0.11-0.05,0.22-0.07,0.33c-0.03,0.17,0.01,0.22,0.2,0.23
		c0.04,0,0.08,0,0.13,0c0.1,0.01,0.15,0.07,0.14,0.17c-0.01,0.13-0.03,0.25-0.05,0.38c-0.02,0.13-0.08,0.18-0.23,0.2
		c-0.07,0.01-0.14,0-0.21,0.01c-0.07,0.01-0.13,0.05-0.14,0.13c-0.06,0.37-0.12,0.75-0.16,1.12c-0.02,0.13,0.04,0.18,0.17,0.19
		c0.04,0,0.08-0.01,0.13,0c0.14,0.02,0.19,0.07,0.19,0.22c0,0.06,0,0.11-0.01,0.17c-0.03,0.29-0.1,0.36-0.4,0.38
		C71.03,31.02,70.96,31.02,70.89,31.02z"/>
	<path class="st0" d="M50.09,30.93c-0.39,0.02-0.4-0.07-0.34-0.38c0.15-0.71,0.25-1.43,0.34-2.16c0.01-0.06,0.01-0.11,0.03-0.17
		c0.02-0.09,0.07-0.16,0.17-0.16c0.23,0.01,0.48-0.09,0.69,0.08c0.07,0.05,0.13,0,0.19-0.04c0.22-0.14,0.46-0.19,0.72-0.15
		c0.21,0.03,0.27,0.13,0.2,0.32c-0.05,0.14-0.12,0.28-0.18,0.43c-0.05,0.12-0.14,0.15-0.27,0.14c-0.57-0.03-0.74,0.1-0.88,0.66
		c-0.08,0.33-0.12,0.66-0.16,1c-0.01,0.07-0.01,0.14-0.02,0.21c-0.03,0.15-0.1,0.21-0.26,0.22C50.25,30.93,50.16,30.93,50.09,30.93z
		"/>
	<path class="st0" d="M31.2,27.09c0.39,0,0.4,0.02,0.34,0.42c-0.13,0.85-0.27,1.69-0.4,2.54c-0.03,0.21-0.04,0.42-0.07,0.63
		c-0.03,0.2-0.08,0.25-0.26,0.26c-0.55,0.04-0.61,0.03-0.54-0.52c0.14-1.01,0.29-2.03,0.43-3.04c0.03-0.24,0.08-0.28,0.33-0.28
		C31.08,27.08,31.14,27.09,31.2,27.09z"/>
	<path class="st0" d="M36.75,30.93c-0.06,0-0.11,0-0.17,0c-0.14-0.01-0.2-0.06-0.18-0.22c0.03-0.21,0.07-0.42,0.1-0.62
		c0.08-0.57,0.17-1.14,0.25-1.71c0.01-0.07,0.02-0.14,0.04-0.21c0.02-0.05,0.06-0.1,0.12-0.11c0.21-0.01,0.42-0.01,0.63,0
		c0.06,0,0.1,0.05,0.1,0.12c0,0.04-0.01,0.08-0.02,0.12c-0.16,0.71-0.23,1.44-0.34,2.16C37.21,30.92,37.2,30.93,36.75,30.93z"/>
	<path class="st0" d="M72.5,28.07c0.07,0,0.14,0,0.21,0c0.15,0.01,0.2,0.06,0.18,0.22c-0.03,0.25-0.07,0.5-0.1,0.75
		c-0.08,0.54-0.15,1.08-0.23,1.62c-0.03,0.23-0.06,0.25-0.29,0.27c-0.13,0.01-0.25,0.02-0.38,0.01c-0.17-0.01-0.26-0.13-0.21-0.29
		c0.12-0.36,0.13-0.74,0.2-1.11c0.07-0.4,0.14-0.8,0.17-1.21c0.02-0.22,0.07-0.26,0.29-0.27C72.38,28.06,72.44,28.06,72.5,28.07
		C72.5,28.06,72.5,28.06,72.5,28.07z"/>
	<path class="st0" d="M72.57,27.84c-0.08,0-0.17,0-0.25,0c-0.15-0.01-0.19-0.07-0.17-0.22c0.01-0.11,0.03-0.22,0.05-0.33
		c0.03-0.14,0.09-0.2,0.23-0.2c0.15-0.01,0.31-0.01,0.46,0.01c0.13,0.01,0.19,0.09,0.19,0.23c0,0.06-0.01,0.11-0.02,0.17
		c-0.05,0.32-0.08,0.35-0.4,0.36C72.62,27.85,72.59,27.84,72.57,27.84C72.57,27.84,72.57,27.84,72.57,27.84z"/>
	<path class="st0" d="M37.27,27.84c-0.41,0-0.44-0.03-0.37-0.43c0.01-0.04,0.01-0.08,0.02-0.12c0.03-0.13,0.09-0.19,0.23-0.2
		c0.07-0.01,0.14,0,0.21-0.01c0.44-0.01,0.47,0.02,0.37,0.49c-0.01,0.03-0.02,0.05-0.02,0.08c-0.05,0.15-0.08,0.18-0.24,0.19
		C37.41,27.85,37.34,27.84,37.27,27.84z"/>
</g>
</svg>
